<?xml version="1.0" encoding="utf-8"?>
<!-- Generator: Adobe Illustrator 23.0.6, SVG Export Plug-In . SVG Version: 6.00 Build 0)  -->
<svg version="1.1" id="Capa_1" xmlns="http://www.w3.org/2000/svg" xmlns:xlink="http://www.w3.org/1999/xlink" x="0px" y="0px"
	 viewBox="0 0 512 512" style="enable-background:new 0 0 512 512;" xml:space="preserve">
<style type="text/css">
	.st0{fill:none;stroke:url(#SVGID_1_);stroke-miterlimit:10;}
	.st1{fill:url(#SVGID_2_);}
	.st2{fill:url(#SVGID_3_);}
	.st3{fill:url(#SVGID_4_);}
	.st4{fill:url(#SVGID_5_);}
	.st5{clip-path:url(#SVGID_41_);}
	.st6{clip-path:url(#SVGID_42_);}
	.st7{clip-path:url(#SVGID_43_);}
	.st8{clip-path:url(#SVGID_44_);}
	.st9{clip-path:url(#SVGID_45_);}
	.st10{clip-path:url(#SVGID_46_);}
	.st11{clip-path:url(#SVGID_47_);}
	.st12{clip-path:url(#SVGID_48_);}
	.st13{clip-path:url(#SVGID_49_);}
	.st14{clip-path:url(#SVGID_50_);}
	.st15{clip-path:url(#SVGID_51_);}
	.st16{clip-path:url(#SVGID_52_);}
	.st17{clip-path:url(#SVGID_53_);}
	.st18{clip-path:url(#SVGID_54_);}
	.st19{clip-path:url(#SVGID_55_);}
	.st20{clip-path:url(#SVGID_56_);}
	.st21{clip-path:url(#SVGID_57_);}
	.st22{clip-path:url(#SVGID_58_);}
	.st23{clip-path:url(#SVGID_59_);}
	.st24{clip-path:url(#SVGID_60_);}
	.st25{clip-path:url(#SVGID_61_);}
	.st26{clip-path:url(#SVGID_62_);}
	.st27{clip-path:url(#SVGID_63_);}
	.st28{clip-path:url(#SVGID_64_);}
	.st29{clip-path:url(#SVGID_65_);}
	.st30{clip-path:url(#SVGID_66_);}
	.st31{clip-path:url(#SVGID_67_);}
	.st32{clip-path:url(#SVGID_68_);}
	.st33{clip-path:url(#SVGID_69_);}
	.st34{clip-path:url(#SVGID_70_);}
	.st35{clip-path:url(#SVGID_71_);}
	.st36{clip-path:url(#SVGID_72_);}
	.st37{clip-path:url(#SVGID_73_);}
	.st38{clip-path:url(#SVGID_74_);}
	.st39{clip-path:url(#SVGID_75_);fill:#B7B7B7;}
</style>
<linearGradient id="SVGID_1_" gradientUnits="userSpaceOnUse" x1="10.3046" y1="256" x2="501.6954" y2="256">
	<stop  offset="0" style="stop-color:#4761AC"/>
	<stop  offset="1" style="stop-color:#54C2EF"/>
</linearGradient>
<rect x="10.8" y="10.8" class="st0" width="490.4" height="490.4"/>
<g>
	<g id="Gradient_outline">
		
			<linearGradient id="SVGID_2_" gradientUnits="userSpaceOnUse" x1="-596.436" y1="716.8464" x2="-567.9836" y2="716.8464" gradientTransform="matrix(8 0 0 -8 4921 6093)">
			<stop  offset="0" style="stop-color:#4761AC"/>
			<stop  offset="1" style="stop-color:#54C2EF"/>
		</linearGradient>
		<path class="st1" d="M171.2,363.4c10.1,19.9,17.8,37.9,24,52.4c13,30.5,20.9,48.9,36,48.9c16,0,17.7-12.5,17.7-39
			c0-32.8,3.2-35.5,7.1-35.5c3.9,0,7.1,2.7,7.1,35.5c0,26.5,1.7,39,17.7,39c15.1,0,22.9-18.4,36-48.9c6.2-14.5,13.9-32.5,24-52.4
			l1.2-2.3c6.3-12.2,13.4-26.1,13.4-41.9c0-37.8-24.9-67.4-56.8-67.4c-12.3,0.1-24.2,4.1-34.1,11.4c-5.2,3.3-11.8,3.3-17,0
			c-9.9-7.3-21.8-11.2-34.1-11.4c-31.8,0-56.8,29.6-56.8,67.4c0,15.8,7.1,29.6,13.4,41.9L171.2,363.4z M213.4,258.8
			c10.7,0.1,21.1,3.6,29.8,9.9l0,0l0,0c10.5,6.9,22.8,10.5,35.4,10.1c8.9-0.1,17.7-1.5,26.1-4.4l-2.2-6.7
			c-11.7,4.2-24.3,5.1-36.5,2.8c1-0.5,2-1.1,2.9-1.8c8.7-6.3,19.1-9.8,29.8-9.9c27.9,0,49.7,26.5,49.7,60.3
			c0,14.1-6.7,27.1-12.6,38.6l-1.2,2.3c-10.2,20.1-18,38.2-24.2,52.8c-11.5,26.9-19,44.6-29.4,44.6c-7.7,0-10.6-2.8-10.6-31.9
			c0-30-2-42.6-14.2-42.6s-14.2,12.6-14.2,42.6c0,29.2-2.9,31.9-10.6,31.9c-10.4,0-18-17.7-29.4-44.6c-6.2-14.6-14-32.7-24.2-52.8
			l-1.2-2.3c-5.9-11.5-12.6-24.6-12.6-38.6C163.7,285.3,185.5,258.8,213.4,258.8z"/>
		
			<linearGradient id="SVGID_3_" gradientUnits="userSpaceOnUse" x1="-596.436" y1="725.0391" x2="-567.9836" y2="725.0391" gradientTransform="matrix(8 0 0 -8 4921 6093)">
			<stop  offset="0" style="stop-color:#4761AC"/>
			<stop  offset="1" style="stop-color:#54C2EF"/>
		</linearGradient>
		<path class="st2" d="M217,273v-7.1c-14.6,0-43.1,11.1-46.1,53l7.1,0.5C181.2,273.8,215.5,273,217,273z"/>
		
			<linearGradient id="SVGID_4_" gradientUnits="userSpaceOnUse" x1="-596.436" y1="720.396" x2="-567.9836" y2="720.396" gradientTransform="matrix(8 0 0 -8 4921 6093)">
			<stop  offset="0" style="stop-color:#4761AC"/>
			<stop  offset="1" style="stop-color:#54C2EF"/>
		</linearGradient>
		<rect x="170.8" y="326.3" class="st3" width="7.1" height="7.1"/>
		
			<linearGradient id="SVGID_5_" gradientUnits="userSpaceOnUse" x1="-596.436" y1="718.9351" x2="-567.9836" y2="718.9351" gradientTransform="matrix(8 0 0 -8 4921 6093)">
			<stop  offset="0" style="stop-color:#4761AC"/>
			<stop  offset="1" style="stop-color:#54C2EF"/>
		</linearGradient>
		<path class="st4" d="M341.2,319.2h-7.1c0,0.2-0.3,17.1-17.1,40.5l5.8,4.1C341,338.4,341.2,320,341.2,319.2z"/>
	</g>
	<g>
		<defs>
			<path id="SVGID_6_" d="M48.5,128.1c1.9,1.2,4.6,2.1,7.5,2.1c4.3,0,6.8-2.3,6.8-5.6c0-3-1.7-4.8-6.1-6.5c-5.3-1.9-8.6-4.6-8.6-9.2
				c0-5.1,4.2-8.8,10.5-8.8c3.3,0,5.7,0.8,7.2,1.6l-1.2,3.4c-1.1-0.6-3.2-1.5-6.2-1.5c-4.4,0-6.1,2.7-6.1,4.9c0,3,2,4.5,6.5,6.3
				c5.5,2.1,8.3,4.8,8.3,9.6c0,5-3.7,9.4-11.4,9.4c-3.1,0-6.6-0.9-8.3-2.1L48.5,128.1z"/>
		</defs>
		<defs>
			<path id="SVGID_7_" d="M75.4,122.3c0.1,5.7,3.8,8.1,8,8.1c3,0,4.9-0.5,6.5-1.2l0.7,3c-1.5,0.7-4.1,1.4-7.8,1.4
				c-7.2,0-11.5-4.7-11.5-11.8c0-7,4.2-12.6,11-12.6c7.6,0,9.7,6.7,9.7,11c0,0.9-0.1,1.5-0.1,2H75.4z M87.8,119.2
				c0-2.7-1.1-6.9-5.9-6.9c-4.3,0-6.2,4-6.5,6.9H87.8z"/>
		</defs>
		<defs>
			<path id="SVGID_8_" d="M97.2,98.9h4.2v34.3h-4.2V98.9z"/>
		</defs>
		<defs>
			<path id="SVGID_9_" d="M110.9,122.3c0.1,5.7,3.8,8.1,8,8.1c3,0,4.9-0.5,6.5-1.2l0.7,3c-1.5,0.7-4.1,1.4-7.8,1.4
				c-7.2,0-11.5-4.7-11.5-11.8c0-7,4.2-12.6,11-12.6c7.6,0,9.7,6.7,9.7,11c0,0.9-0.1,1.5-0.1,2H110.9z M123.4,119.2
				c0-2.7-1.1-6.9-5.9-6.9c-4.3,0-6.2,4-6.5,6.9H123.4z"/>
		</defs>
		<defs>
			<path id="SVGID_10_" d="M149.4,132.3c-1.1,0.6-3.6,1.4-6.7,1.4c-7,0-11.6-4.8-11.6-11.9c0-7.2,4.9-12.4,12.6-12.4
				c2.5,0,4.7,0.6,5.9,1.2l-1,3.3c-1-0.6-2.6-1.1-4.9-1.1c-5.4,0-8.3,4-8.3,8.8c0,5.4,3.5,8.7,8.1,8.7c2.4,0,4-0.6,5.2-1.2
				L149.4,132.3z"/>
		</defs>
		<defs>
			<path id="SVGID_11_" d="M170.8,132.3c-1.1,0.6-3.6,1.4-6.7,1.4c-7,0-11.6-4.8-11.6-11.9c0-7.2,4.9-12.4,12.6-12.4
				c2.5,0,4.7,0.6,5.9,1.2l-1,3.3c-1-0.6-2.6-1.1-4.9-1.1c-5.4,0-8.3,4-8.3,8.8c0,5.4,3.5,8.7,8.1,8.7c2.4,0,4-0.6,5.2-1.2
				L170.8,132.3z"/>
		</defs>
		<defs>
			<path id="SVGID_12_" d="M180.5,103.2c0,1.4-1,2.6-2.7,2.6c-1.5,0-2.6-1.2-2.6-2.6c0-1.5,1.1-2.7,2.7-2.7
				C179.4,100.6,180.5,101.8,180.5,103.2z M175.7,133.2v-23.4h4.2v23.4H175.7z"/>
		</defs>
		<defs>
			<path id="SVGID_13_" d="M208.2,121.3c0,8.6-6,12.4-11.6,12.4c-6.3,0-11.2-4.6-11.2-12c0-7.8,5.1-12.4,11.6-12.4
				C203.6,109.3,208.2,114.2,208.2,121.3z M189.6,121.5c0,5.1,2.9,9,7.1,9c4.1,0,7.1-3.8,7.1-9.1c0-4-2-9-7-9
				C191.8,112.5,189.6,117.1,189.6,121.5z"/>
		</defs>
		<defs>
			<path id="SVGID_14_" d="M213.5,116.1c0-2.4,0-4.4-0.2-6.3h3.8l0.2,3.9h0.1c1.2-2.2,3.9-4.4,7.7-4.4c3.2,0,8.3,1.9,8.3,9.9v14
				h-4.2v-13.5c0-3.8-1.4-6.9-5.4-6.9c-2.8,0-5,2-5.7,4.3c-0.2,0.5-0.3,1.3-0.3,2v14h-4.2V116.1z"/>
		</defs>
		<defs>
			<path id="SVGID_15_" d="M253.2,133.2l-0.3-2.9h-0.1c-1.3,1.8-3.8,3.5-7.1,3.5c-4.7,0-7.1-3.3-7.1-6.7c0-5.6,5-8.7,14-8.7v-0.5
				c0-1.9-0.5-5.4-5.3-5.4c-2.2,0-4.4,0.7-6.1,1.7l-1-2.8c1.9-1.3,4.7-2.1,7.7-2.1c7.1,0,8.9,4.9,8.9,9.6v8.7c0,2,0.1,4,0.4,5.6
				H253.2z M252.6,121.3c-4.6-0.1-9.9,0.7-9.9,5.3c0,2.8,1.8,4.1,4,4.1c3,0,5-1.9,5.6-3.9c0.1-0.4,0.2-0.9,0.2-1.4V121.3z"/>
		</defs>
		<defs>
			<path id="SVGID_16_" d="M273.8,98.9h4.2v34.3h-4.2V98.9z"/>
		</defs>
		<defs>
			<path id="SVGID_17_" d="M298.1,133.2l-0.3-2.9h-0.1c-1.3,1.8-3.8,3.5-7.1,3.5c-4.7,0-7.1-3.3-7.1-6.7c0-5.6,5-8.7,14-8.7v-0.5
				c0-1.9-0.5-5.4-5.3-5.4c-2.2,0-4.4,0.7-6.1,1.7l-1-2.8c1.9-1.3,4.7-2.1,7.7-2.1c7.1,0,8.9,4.9,8.9,9.6v8.7c0,2,0.1,4,0.4,5.6
				H298.1z M297.5,121.3c-4.6-0.1-9.9,0.7-9.9,5.3c0,2.8,1.8,4.1,4,4.1c3,0,5-1.9,5.6-3.9c0.1-0.4,0.2-0.9,0.2-1.4V121.3z"/>
		</defs>
		<defs>
			<path id="SVGID_18_" d="M323.4,103.2c0,1.4-1,2.6-2.7,2.6c-1.5,0-2.6-1.2-2.6-2.6c0-1.5,1.1-2.7,2.7-2.7
				C322.4,100.6,323.4,101.8,323.4,103.2z M318.7,133.2v-23.4h4.2v23.4H318.7z"/>
		</defs>
		<defs>
			<path id="SVGID_19_" d="M330,116.1c0-2.4,0-4.4-0.2-6.3h3.7l0.2,3.8h0.1c1.3-2.2,3.5-4.3,7.3-4.3c3.2,0,5.6,1.9,6.6,4.7h0.1
				c0.7-1.3,1.6-2.3,2.6-3c1.4-1.1,2.9-1.6,5.2-1.6c3.1,0,7.7,2,7.7,10.1v13.8h-4.2V120c0-4.5-1.6-7.2-5.1-7.2c-2.4,0-4.3,1.8-5,3.9
				c-0.2,0.6-0.3,1.4-0.3,2.1v14.4h-4.2v-14c0-3.7-1.6-6.4-4.9-6.4c-2.7,0-4.6,2.1-5.3,4.2c-0.2,0.6-0.3,1.4-0.3,2.1v14.1H330V116.1
				z"/>
		</defs>
		<defs>
			<path id="SVGID_20_" d="M383.2,133.2l-0.3-2.9h-0.1c-1.3,1.8-3.8,3.5-7.1,3.5c-4.7,0-7.1-3.3-7.1-6.7c0-5.6,5-8.7,14-8.7v-0.5
				c0-1.9-0.5-5.4-5.3-5.4c-2.2,0-4.4,0.7-6.1,1.7l-1-2.8c1.9-1.3,4.7-2.1,7.7-2.1c7.1,0,8.9,4.9,8.9,9.6v8.7c0,2,0.1,4,0.4,5.6
				H383.2z M382.6,121.3c-4.6-0.1-9.9,0.7-9.9,5.3c0,2.8,1.8,4.1,4,4.1c3,0,5-1.9,5.6-3.9c0.1-0.4,0.2-0.9,0.2-1.4V121.3z"/>
		</defs>
		<defs>
			<path id="SVGID_21_" d="M413.7,109.8c-0.1,1.7-0.2,3.6-0.2,6.4v13.6c0,5.4-1.1,8.6-3.3,10.7c-2.3,2.1-5.6,2.8-8.5,2.8
				c-2.8,0-5.9-0.7-7.8-1.9l1.1-3.2c1.5,1,4,1.8,6.9,1.8c4.3,0,7.5-2.3,7.5-8.2v-2.6h-0.1c-1.3,2.2-3.8,3.9-7.4,3.9
				c-5.8,0-9.9-4.9-9.9-11.4c0-7.9,5.2-12.4,10.5-12.4c4.1,0,6.3,2.1,7.3,4.1h0.1l0.2-3.5H413.7z M409.3,119c0-0.7,0-1.4-0.2-1.9
				c-0.8-2.5-2.8-4.5-5.9-4.5c-4.1,0-7,3.4-7,8.8c0,4.6,2.3,8.4,6.9,8.4c2.6,0,5-1.6,5.9-4.3c0.2-0.7,0.3-1.5,0.3-2.3V119z"/>
		</defs>
		<defs>
			<path id="SVGID_22_" d="M422.9,122.3c0.1,5.7,3.8,8.1,8,8.1c3,0,4.9-0.5,6.5-1.2l0.7,3c-1.5,0.7-4.1,1.4-7.8,1.4
				c-7.2,0-11.5-4.7-11.5-11.8c0-7,4.2-12.6,11-12.6c7.6,0,9.7,6.7,9.7,11c0,0.9-0.1,1.5-0.1,2H422.9z M435.3,119.2
				c0-2.7-1.1-6.9-5.9-6.9c-4.3,0-6.2,4-6.5,6.9H435.3z"/>
		</defs>
		<defs>
			<path id="SVGID_23_" d="M444.7,116.1c0-2.4,0-4.4-0.2-6.3h3.8l0.2,3.9h0.1c1.2-2.2,3.9-4.4,7.7-4.4c3.2,0,8.3,1.9,8.3,9.9v14
				h-4.2v-13.5c0-3.8-1.4-6.9-5.4-6.9c-2.8,0-5,2-5.7,4.3c-0.2,0.5-0.3,1.3-0.3,2v14h-4.2V116.1z"/>
		</defs>
		<defs>
			<path id="SVGID_24_" d="M80.5,187.5L80.5,187.5c-1.4,2.3-4,4.2-7.7,4.2c-5.5,0-9.9-4.7-9.9-11.8c0-8.7,5.6-12.6,10.6-12.6
				c3.6,0,6,1.8,7.2,4.1h0.1l0.1-3.5h4c-0.1,2-0.1,4-0.1,6.4v26.5h-4.2V187.5z M80.5,177.2c0-0.6,0-1.3-0.2-1.8
				c-0.6-2.6-2.9-4.8-6.1-4.8c-4.4,0-7,3.7-7,9c0,4.6,2.2,8.7,6.9,8.7c2.8,0,5.1-1.7,6.1-4.6c0.2-0.6,0.3-1.4,0.3-2V177.2z"/>
		</defs>
		<defs>
			<path id="SVGID_25_" d="M111.3,184.7c0,2.4,0,4.5,0.2,6.4h-3.8l-0.2-3.8h-0.1c-1.1,1.9-3.6,4.3-7.7,4.3c-3.7,0-8.1-2-8.1-10.2
				v-13.7h4.2v12.9c0,4.4,1.4,7.4,5.2,7.4c2.8,0,4.8-2,5.6-3.9c0.2-0.6,0.4-1.4,0.4-2.2v-14.3h4.2V184.7z"/>
		</defs>
		<defs>
			<path id="SVGID_26_" d="M120.7,180.2c0.1,5.7,3.8,8.1,8,8.1c3,0,4.9-0.5,6.5-1.2l0.7,3c-1.5,0.7-4.1,1.4-7.8,1.4
				c-7.2,0-11.5-4.7-11.5-11.8c0-7,4.2-12.6,11-12.6c7.6,0,9.7,6.7,9.7,11c0,0.9-0.1,1.5-0.1,2H120.7z M133.2,177.2
				c0-2.7-1.1-6.9-5.9-6.9c-4.3,0-6.2,4-6.5,6.9H133.2z"/>
		</defs>
		<defs>
			<path id="SVGID_27_" d="M173,156.8v28.2c0,2.1,0,4.4,0.2,6h-3.8l-0.2-4.1H169c-1.3,2.6-4.2,4.6-8,4.6c-5.6,0-10-4.8-10-11.9
				c0-7.8,4.8-12.6,10.5-12.6c3.6,0,6,1.7,7,3.6h0.1v-14H173z M168.7,177.3c0-0.5,0-1.3-0.2-1.8c-0.6-2.7-2.9-4.9-6.1-4.9
				c-4.4,0-7,3.9-7,9c0,4.7,2.3,8.6,6.9,8.6c2.8,0,5.5-1.9,6.2-5.1c0.1-0.6,0.2-1.2,0.2-1.8V177.3z"/>
		</defs>
		<defs>
			<path id="SVGID_28_" d="M182.4,180.2c0.1,5.7,3.8,8.1,8,8.1c3,0,4.9-0.5,6.5-1.2l0.7,3c-1.5,0.7-4.1,1.4-7.8,1.4
				c-7.2,0-11.5-4.7-11.5-11.8c0-7,4.2-12.6,11-12.6c7.6,0,9.7,6.7,9.7,11c0,0.9-0.1,1.5-0.1,2H182.4z M194.8,177.2
				c0-2.7-1.1-6.9-5.9-6.9c-4.3,0-6.2,4-6.5,6.9H194.8z"/>
		</defs>
		<defs>
			<path id="SVGID_29_" d="M203.6,186.8c1.3,0.8,3.5,1.7,5.6,1.7c3.1,0,4.5-1.5,4.5-3.5c0-2-1.2-3.1-4.3-4.3
				c-4.2-1.5-6.2-3.8-6.2-6.6c0-3.8,3-6.9,8.1-6.9c2.4,0,4.4,0.7,5.7,1.4l-1.1,3.1c-0.9-0.6-2.6-1.4-4.8-1.4c-2.5,0-3.9,1.4-3.9,3.2
				c0,1.9,1.4,2.8,4.4,4c4.1,1.5,6.1,3.6,6.1,7c0,4.1-3.2,7-8.7,7c-2.6,0-4.9-0.6-6.6-1.6L203.6,186.8z"/>
		</defs>
		<defs>
			<path id="SVGID_30_" d="M225.7,180.2c0.1,5.7,3.8,8.1,8,8.1c3,0,4.9-0.5,6.5-1.2l0.7,3c-1.5,0.7-4.1,1.4-7.8,1.4
				c-7.2,0-11.5-4.7-11.5-11.8c0-7,4.2-12.6,11-12.6c7.6,0,9.7,6.7,9.7,11c0,0.9-0.1,1.5-0.1,2H225.7z M238.1,177.2
				c0-2.7-1.1-6.9-5.9-6.9c-4.3,0-6.2,4-6.5,6.9H238.1z"/>
		</defs>
		<defs>
			<path id="SVGID_31_" d="M260.4,191.1l-0.3-2.9h-0.1c-1.3,1.8-3.8,3.5-7.1,3.5c-4.7,0-7.1-3.3-7.1-6.7c0-5.6,5-8.7,14-8.7v-0.5
				c0-1.9-0.5-5.4-5.3-5.4c-2.2,0-4.4,0.7-6.1,1.7l-1-2.8c1.9-1.3,4.7-2.1,7.7-2.1c7.1,0,8.9,4.9,8.9,9.6v8.7c0,2,0.1,4,0.4,5.6
				H260.4z M259.8,179.2c-4.6-0.1-9.9,0.7-9.9,5.3c0,2.8,1.8,4.1,4,4.1c3,0,5-1.9,5.6-3.9c0.1-0.4,0.2-0.9,0.2-1.4V179.2z"/>
		</defs>
		<defs>
			<path id="SVGID_32_" d="M270.2,186.8c1.3,0.8,3.5,1.7,5.6,1.7c3.1,0,4.5-1.5,4.5-3.5c0-2-1.2-3.1-4.3-4.3
				c-4.2-1.5-6.2-3.8-6.2-6.6c0-3.8,3-6.9,8.1-6.9c2.4,0,4.4,0.7,5.7,1.4l-1.1,3.1c-0.9-0.6-2.6-1.4-4.8-1.4c-2.5,0-3.9,1.4-3.9,3.2
				c0,1.9,1.4,2.8,4.4,4c4.1,1.5,6.1,3.6,6.1,7c0,4.1-3.2,7-8.7,7c-2.6,0-4.9-0.6-6.6-1.6L270.2,186.8z"/>
		</defs>
		<defs>
			<path id="SVGID_33_" d="M313,191.1l-0.3-2.9h-0.1c-1.3,1.8-3.8,3.5-7.1,3.5c-4.7,0-7.1-3.3-7.1-6.7c0-5.6,5-8.7,14-8.7v-0.5
				c0-1.9-0.5-5.4-5.3-5.4c-2.2,0-4.4,0.7-6.1,1.7l-1-2.8c1.9-1.3,4.7-2.1,7.7-2.1c7.1,0,8.9,4.9,8.9,9.6v8.7c0,2,0.1,4,0.4,5.6H313
				z M312.4,179.2c-4.6-0.1-9.9,0.7-9.9,5.3c0,2.8,1.8,4.1,4,4.1c3,0,5-1.9,5.6-3.9c0.1-0.4,0.2-0.9,0.2-1.4V179.2z"/>
		</defs>
		<defs>
			<path id="SVGID_34_" d="M323.4,174.1c0-2.4,0-4.4-0.2-6.3h3.8l0.2,3.9h0.1c1.2-2.2,3.9-4.4,7.7-4.4c3.2,0,8.3,1.9,8.3,9.9v14H339
				v-13.5c0-3.8-1.4-6.9-5.4-6.9c-2.8,0-5,2-5.7,4.3c-0.2,0.5-0.3,1.3-0.3,2v14h-4.2V174.1z"/>
		</defs>
		<defs>
			<path id="SVGID_35_" d="M363.1,191.1l-0.3-2.9h-0.1c-1.3,1.8-3.8,3.5-7.1,3.5c-4.7,0-7.1-3.3-7.1-6.7c0-5.6,5-8.7,14-8.7v-0.5
				c0-1.9-0.5-5.4-5.3-5.4c-2.2,0-4.4,0.7-6.1,1.7l-1-2.8c1.9-1.3,4.7-2.1,7.7-2.1c7.1,0,8.9,4.9,8.9,9.6v8.7c0,2,0.1,4,0.4,5.6
				H363.1z M362.5,179.2c-4.6-0.1-9.9,0.7-9.9,5.3c0,2.8,1.8,4.1,4,4.1c3,0,5-1.9,5.6-3.9c0.1-0.4,0.2-0.9,0.2-1.4V179.2z"/>
		</defs>
		<defs>
			<path id="SVGID_36_" d="M373.4,156.8h4.2v34.3h-4.2V156.8z"/>
		</defs>
		<defs>
			<path id="SVGID_37_" d="M389.5,161.2c0,1.4-1,2.6-2.7,2.6c-1.5,0-2.6-1.2-2.6-2.6c0-1.5,1.1-2.7,2.7-2.7
				C388.5,158.5,389.5,159.7,389.5,161.2z M384.8,191.1v-23.4h4.2v23.4H384.8z"/>
		</defs>
		<defs>
			<path id="SVGID_38_" d="M393.5,188.6l10.6-13.8c1-1.3,2-2.4,3-3.6v-0.1h-12.6v-3.4h17.8l0,2.7L401.8,184c-1,1.3-1.9,2.5-3,3.7
				v0.1h13.7v3.4h-19V188.6z"/>
		</defs>
		<defs>
			<path id="SVGID_39_" d="M429.7,191.1l-0.3-2.9h-0.1c-1.3,1.8-3.8,3.5-7.1,3.5c-4.7,0-7.1-3.3-7.1-6.7c0-5.6,5-8.7,14-8.7v-0.5
				c0-1.9-0.5-5.4-5.3-5.4c-2.2,0-4.4,0.7-6.1,1.7l-1-2.8c1.9-1.3,4.7-2.1,7.7-2.1c7.1,0,8.9,4.9,8.9,9.6v8.7c0,2,0.1,4,0.4,5.6
				H429.7z M429.1,179.2c-4.6-0.1-9.9,0.7-9.9,5.3c0,2.8,1.8,4.1,4,4.1c3,0,5-1.9,5.6-3.9c0.1-0.4,0.2-0.9,0.2-1.4V179.2z"/>
		</defs>
		<defs>
			<path id="SVGID_40_" d="M440,175c0-2.8,0-5.1-0.2-7.3h3.7l0.1,4.6h0.2c1.1-3.1,3.6-5.1,6.5-5.1c0.5,0,0.8,0,1.2,0.1v4
				c-0.4-0.1-0.9-0.1-1.4-0.1c-3,0-5.1,2.3-5.7,5.5c-0.1,0.6-0.2,1.3-0.2,2v12.5H440V175z"/>
		</defs>
		<use xlink:href="#SVGID_6_"  style="overflow:visible;fill:#B7B7B7;"/>
		<use xlink:href="#SVGID_7_"  style="overflow:visible;fill:#B7B7B7;"/>
		<use xlink:href="#SVGID_8_"  style="overflow:visible;fill:#B7B7B7;"/>
		<use xlink:href="#SVGID_9_"  style="overflow:visible;fill:#B7B7B7;"/>
		<use xlink:href="#SVGID_10_"  style="overflow:visible;fill:#B7B7B7;"/>
		<use xlink:href="#SVGID_11_"  style="overflow:visible;fill:#B7B7B7;"/>
		<use xlink:href="#SVGID_12_"  style="overflow:visible;fill:#B7B7B7;"/>
		<use xlink:href="#SVGID_13_"  style="overflow:visible;fill:#B7B7B7;"/>
		<use xlink:href="#SVGID_14_"  style="overflow:visible;fill:#B7B7B7;"/>
		<use xlink:href="#SVGID_15_"  style="overflow:visible;fill:#B7B7B7;"/>
		<use xlink:href="#SVGID_16_"  style="overflow:visible;fill:#B7B7B7;"/>
		<use xlink:href="#SVGID_17_"  style="overflow:visible;fill:#B7B7B7;"/>
		<use xlink:href="#SVGID_18_"  style="overflow:visible;fill:#B7B7B7;"/>
		<use xlink:href="#SVGID_19_"  style="overflow:visible;fill:#B7B7B7;"/>
		<use xlink:href="#SVGID_20_"  style="overflow:visible;fill:#B7B7B7;"/>
		<use xlink:href="#SVGID_21_"  style="overflow:visible;fill:#B7B7B7;"/>
		<use xlink:href="#SVGID_22_"  style="overflow:visible;fill:#B7B7B7;"/>
		<use xlink:href="#SVGID_23_"  style="overflow:visible;fill:#B7B7B7;"/>
		<use xlink:href="#SVGID_24_"  style="overflow:visible;fill:#B7B7B7;"/>
		<use xlink:href="#SVGID_25_"  style="overflow:visible;fill:#B7B7B7;"/>
		<use xlink:href="#SVGID_26_"  style="overflow:visible;fill:#B7B7B7;"/>
		<use xlink:href="#SVGID_27_"  style="overflow:visible;fill:#B7B7B7;"/>
		<use xlink:href="#SVGID_28_"  style="overflow:visible;fill:#B7B7B7;"/>
		<use xlink:href="#SVGID_29_"  style="overflow:visible;fill:#B7B7B7;"/>
		<use xlink:href="#SVGID_30_"  style="overflow:visible;fill:#B7B7B7;"/>
		<use xlink:href="#SVGID_31_"  style="overflow:visible;fill:#B7B7B7;"/>
		<use xlink:href="#SVGID_32_"  style="overflow:visible;fill:#B7B7B7;"/>
		<use xlink:href="#SVGID_33_"  style="overflow:visible;fill:#B7B7B7;"/>
		<use xlink:href="#SVGID_34_"  style="overflow:visible;fill:#B7B7B7;"/>
		<use xlink:href="#SVGID_35_"  style="overflow:visible;fill:#B7B7B7;"/>
		<use xlink:href="#SVGID_36_"  style="overflow:visible;fill:#B7B7B7;"/>
		<use xlink:href="#SVGID_37_"  style="overflow:visible;fill:#B7B7B7;"/>
		<use xlink:href="#SVGID_38_"  style="overflow:visible;fill:#B7B7B7;"/>
		<use xlink:href="#SVGID_39_"  style="overflow:visible;fill:#B7B7B7;"/>
		<use xlink:href="#SVGID_40_"  style="overflow:visible;fill:#B7B7B7;"/>
		<clipPath id="SVGID_41_">
			<use xlink:href="#SVGID_6_"  style="overflow:visible;"/>
		</clipPath>
		<clipPath id="SVGID_42_" class="st5">
			<use xlink:href="#SVGID_7_"  style="overflow:visible;"/>
		</clipPath>
		<clipPath id="SVGID_43_" class="st6">
			<use xlink:href="#SVGID_8_"  style="overflow:visible;"/>
		</clipPath>
		<clipPath id="SVGID_44_" class="st7">
			<use xlink:href="#SVGID_9_"  style="overflow:visible;"/>
		</clipPath>
		<clipPath id="SVGID_45_" class="st8">
			<use xlink:href="#SVGID_10_"  style="overflow:visible;"/>
		</clipPath>
		<clipPath id="SVGID_46_" class="st9">
			<use xlink:href="#SVGID_11_"  style="overflow:visible;"/>
		</clipPath>
		<clipPath id="SVGID_47_" class="st10">
			<use xlink:href="#SVGID_12_"  style="overflow:visible;"/>
		</clipPath>
		<clipPath id="SVGID_48_" class="st11">
			<use xlink:href="#SVGID_13_"  style="overflow:visible;"/>
		</clipPath>
		<clipPath id="SVGID_49_" class="st12">
			<use xlink:href="#SVGID_14_"  style="overflow:visible;"/>
		</clipPath>
		<clipPath id="SVGID_50_" class="st13">
			<use xlink:href="#SVGID_15_"  style="overflow:visible;"/>
		</clipPath>
		<clipPath id="SVGID_51_" class="st14">
			<use xlink:href="#SVGID_16_"  style="overflow:visible;"/>
		</clipPath>
		<clipPath id="SVGID_52_" class="st15">
			<use xlink:href="#SVGID_17_"  style="overflow:visible;"/>
		</clipPath>
		<clipPath id="SVGID_53_" class="st16">
			<use xlink:href="#SVGID_18_"  style="overflow:visible;"/>
		</clipPath>
		<clipPath id="SVGID_54_" class="st17">
			<use xlink:href="#SVGID_19_"  style="overflow:visible;"/>
		</clipPath>
		<clipPath id="SVGID_55_" class="st18">
			<use xlink:href="#SVGID_20_"  style="overflow:visible;"/>
		</clipPath>
		<clipPath id="SVGID_56_" class="st19">
			<use xlink:href="#SVGID_21_"  style="overflow:visible;"/>
		</clipPath>
		<clipPath id="SVGID_57_" class="st20">
			<use xlink:href="#SVGID_22_"  style="overflow:visible;"/>
		</clipPath>
		<clipPath id="SVGID_58_" class="st21">
			<use xlink:href="#SVGID_23_"  style="overflow:visible;"/>
		</clipPath>
		<clipPath id="SVGID_59_" class="st22">
			<use xlink:href="#SVGID_24_"  style="overflow:visible;"/>
		</clipPath>
		<clipPath id="SVGID_60_" class="st23">
			<use xlink:href="#SVGID_25_"  style="overflow:visible;"/>
		</clipPath>
		<clipPath id="SVGID_61_" class="st24">
			<use xlink:href="#SVGID_26_"  style="overflow:visible;"/>
		</clipPath>
		<clipPath id="SVGID_62_" class="st25">
			<use xlink:href="#SVGID_27_"  style="overflow:visible;"/>
		</clipPath>
		<clipPath id="SVGID_63_" class="st26">
			<use xlink:href="#SVGID_28_"  style="overflow:visible;"/>
		</clipPath>
		<clipPath id="SVGID_64_" class="st27">
			<use xlink:href="#SVGID_29_"  style="overflow:visible;"/>
		</clipPath>
		<clipPath id="SVGID_65_" class="st28">
			<use xlink:href="#SVGID_30_"  style="overflow:visible;"/>
		</clipPath>
		<clipPath id="SVGID_66_" class="st29">
			<use xlink:href="#SVGID_31_"  style="overflow:visible;"/>
		</clipPath>
		<clipPath id="SVGID_67_" class="st30">
			<use xlink:href="#SVGID_32_"  style="overflow:visible;"/>
		</clipPath>
		<clipPath id="SVGID_68_" class="st31">
			<use xlink:href="#SVGID_33_"  style="overflow:visible;"/>
		</clipPath>
		<clipPath id="SVGID_69_" class="st32">
			<use xlink:href="#SVGID_34_"  style="overflow:visible;"/>
		</clipPath>
		<clipPath id="SVGID_70_" class="st33">
			<use xlink:href="#SVGID_35_"  style="overflow:visible;"/>
		</clipPath>
		<clipPath id="SVGID_71_" class="st34">
			<use xlink:href="#SVGID_36_"  style="overflow:visible;"/>
		</clipPath>
		<clipPath id="SVGID_72_" class="st35">
			<use xlink:href="#SVGID_37_"  style="overflow:visible;"/>
		</clipPath>
		<clipPath id="SVGID_73_" class="st36">
			<use xlink:href="#SVGID_38_"  style="overflow:visible;"/>
		</clipPath>
		<clipPath id="SVGID_74_" class="st37">
			<use xlink:href="#SVGID_39_"  style="overflow:visible;"/>
		</clipPath>
		<clipPath id="SVGID_75_" class="st38">
			<use xlink:href="#SVGID_40_"  style="overflow:visible;"/>
		</clipPath>
		<rect x="11.7" y="73.3" class="st39" width="484.6" height="180.9"/>
	</g>
</g>
</svg>
